<?xml version="1.0" encoding="UTF-8"?>
<svg version="1.1" viewBox="0 0 2048 1034" width="703" height="355" xmlns="http://www.w3.org/2000/svg">
<path transform="translate(182,493)" d="m0 0 7 3 5 5 2 4-1 9 2 5 4 2 10 17 2 8v8l-4 6-6 7 2 9 8 1 9 8 5 10-1 3-4-8-1 2 1 2v7l-5 15-2 4h9l1-5 3-10 1-7 3-4 1-9-2-6v-10l5-15 3-7 6-5 5-6 6-4h2l2-4 14-13 6-3 10-1 11 2 12 7 9 6 3 7v21l-4 15v21l5 5 8 7 4 6 13 12 8 7 2 5 4 1 9-12 9-9 5-2 2-5 5-4 1-5v-13l5-10-5-3-4-4 1-4 6-2 1-2-6-2-1-1v-6l2-4 4-2 16 1 2-8 5-5h8l4 2 1 2v9l11-2 3 6 5 16 4 10 1 9-14 6-9 7-20 6-3-1-3-3-24 40-11 13-6 5-7-1-10-7-12-9-4-4 1 17 4 24 8 21 6 21 7 43 6 29 1 8v10l-20 10-4 33-6 26-8 44-4 15v7l3 8 9 11 8 5 3 4v3h-5l-7-2-9-2-12-6-7-1-2-7 3-14v-17l-2-25v-34l4-21 2-8v-15l-1-1h-5l-11 38-9 31-6 14-11 33v17l6 15v6l-4-1-14-11-8-10-5-7 1-6 6-7 3-8 1-8 2-35 3-22 5-16 4-13 8-9-16-4-11-4-6-4 3-15 6-23 6-29 5-26 3-25h-17l-6-1-2 29 1 1v46l-2 28-7 42-3 25-7 37-4 26-6 12-4 9-1 4 2 4 11 6 19 12v3l-21-1-17-3-13-4-1-6 2-12 2-7-4-2v-17l5-52 1-18-12 13-9 7-7 6-7 8-10 10-8 7-11 9-7 5-6-5 1 4-5 1 1 4v8l-1 5-1 19-1 8-4-2-6-12-6-27-3-6 2-4 9-5 2-1h6l-2-6v-5l9-10 7-10 14-15 18-21 7-8 10-8 7-5-5-31-4-11-4-21-2-16v-7l-2-4-1-33-8-2-13-8-13-10-10-11-8-7-7-3-5-1h-13l-7 1-3-6-4-18-2-6v-5l3-2v-11l3-2 8 3 1-3 4 4 3 1 1-5 5-3 4-3 5 1 3 5v4l4 2 4 11 3 22v4l6 5 16 7 8 5 2-39 3-17 6-9 4-5 4-6 8-3v-12l-2-6-11 2-10-5-12-10-3-6-3-4-1-3v-7l6-9 2-8 6-4 8-4 10-7-2-4v-3l5 1 7 3-1-4zm157 132m-71 17 1 3zm1 3-5 19-1 10 10 7h1l-1-32z" fill="#F8BB98"/>
<path transform="translate(1888,528)" d="m0 0h7l7 3 3 2 16 1 8 4 6 10 5 14 4 19 5 5 9 1 1-5-2-5 6 1 5 5 3 9v8l-4 10-4 3-7 1 7 8v8l-6 7-6 5-9 1-17-2-5-7-4 4-3 9-1 6 4 1-1-2v-6l4 1 2-4 5-1 4 5-1 9-8 18-4 5-7-1-3-4-4-12-4 2-6 1-3-1 1 6-3 2h-3l2 4-1 5-4 4h-2l2 3-1 29-7 5-1 17 19-6h6l8-3 10-4 9 7 7 8v3l-6-1-8-3-6 1-9 3-2-1-1 6-10 5-3 8-1 2 5 1 14 5 8 2 2 7 2 10 3 9v8l-5-1-5-8-4-9-5-5-14-5-10-2-3 1-5-1-23-1-6-9-5-8-7-28-3-24-5-8 2-10 6-8 7-9 1-4-15 8-8 2 1 22 3 8v7l-7 6 1 7v114l5 2 9 10 9 16 8 17 9 21 7 13v7l4 5 12 21v10l-3 10-6 12-4 3-4-5-1-7 4-5-2-7-4-16-6-10-5-7-6-5-7-11-13-15-1-3h-2l-7-8-7-10-8-10-8-11-6-10-4-12-6-14v-3h-2v9l-3 18v7l5 14 2 12 1 61-1 4 3 28 2 3v6l-7 3-33 4h-7v-2l12-5 11-8 4-2 1-2v-13l-2-14-5-15-8-32-5-18-6-29-5-37-1-16v-82l-1-2v-17l2-8 6-9 8-14 5-5 4-3h11l5-34 4-21 8-16 6-9 5-5 5 1 9 8 8 11 6 12 5 8 16 36v2h2l3-15-3-3h-2l-2 3-6-13v-8l3-12 2-3h2v-6l-2-1-1 6-3 5h-4l-1-2v-14l3-7 7-7 7-2 9 2h7l4-2 2-4 5-17 7-10 5-6zm62 96-1 2 3 6h3l2-5-5-3zm-34 30m1 1v2l2-1z" fill="#FDA5AE"/>
<path transform="translate(1725,717)" d="m0 0h7l4 1v2l13 1 19 2h14l22-2 5-1 2 7v114l5 2 9 10 9 16 8 17 9 21 7 13v7l4 5 12 21v10l-3 10-6 12-4 3-4-5-1-7 4-5-2-7-4-16-6-10-5-7-6-5-7-11-13-15-1-3h-2l-7-8-7-10-8-10-8-11-6-10-4-12-6-14v-3h-2v9l-3 18v7l5 14 2 12 1 61-1 4 3 28 2 3v6l-7 3-33 4h-7v-2l12-5 11-8 4-2 1-2v-13l-2-14-5-15-8-32-5-18-6-29-5-37-1-16v-68z" fill="#5D9ABE"/>
<path transform="translate(352,727)" d="m0 0h4l2 9 5 29 5 25 1 8v10l-20 10-4 33-6 26-8 44-4 15v7l3 8 9 11 8 5 3 4v3h-5l-7-2-9-2-12-6-7-1-2-7 3-14v-17l-2-25v-34l4-21 2-8v-15l-1-1h-5l-11 38-9 31-6 14-11 33v17l6 15v6l-4-1-14-11-8-10-5-7 1-6 6-7 3-8 1-8 2-35 3-22 5-16 4-13 8-9-16-4-11-4-6-4 3-15 6-23 6-29 2-9 42-2 27-2z" fill="#B54146"/>
<path transform="translate(243,721)" d="m0 0h3v46l-2 28-7 42-3 25-7 37-4 26-6 12-4 9-1 4 2 4 11 6 19 12v3l-21-1-17-3-13-4-1-6 2-12 2-7-4-2v-17l5-52 1-18-12 13-9 7-7 6-7 8-10 10-8 7-11 9-7 5-6-5 1 4-5 1 1 4v8l-1 5-1 19-1 8-4-2-6-12-6-27-3-6 2-4 9-5 2-1h6l-2-6v-5l9-10 7-10 14-15 18-21 7-8 10-8 7-5-5-31-4-11-4-21-2-16v-5l1-1 30-2 12-3 24-4z" fill="#5D9BBF"/>
<path transform="translate(182,493)" d="m0 0 7 3 5 5 2 4-1 9 2 5 4 2 10 17 2 8v8l-4 6-6 7 2 9 8 1 9 8 5 10-1 3-4-8v-2l-12 5-7 6-7 1-6-1-1 4 4 10 9 40 2 20 2 43 1 13-6 2-15 1h-15l-3-5-1-33-8-2-13-8-13-10-10-11-8-7-7-3-5-1h-13l-7 1-3-6-4-18-2-6v-5l3-2v-11l3-2 8 3 1-3 4 4 3 1 1-5 5-3 4-3 5 1 3 5v4l4 2 4 11 3 22v4l6 5 16 7 8 5 2-39 3-17 6-9 4-5 4-6 8-3v-12l-2-6-11 2-10-5-12-10-3-6-3-4-1-3v-7l6-9 2-8 6-4 8-4 10-7-2-4v-3l5 1 7 3-1-4z" fill="#FBAA66"/>
<path transform="translate(1787,570)" d="m0 0 5 1 9 8 8 11 6 12 5 8 8 18 7 16 2 12-1 7-5 7-10 5-8 2 1 22 3 8v7l-9 7-14 2-12 1h-14l-25-3-7-1v-2l-11-1-2-6v-17l2-8 6-9 8-14 5-5 4-3h11l5-34 4-21 8-16 6-9z" fill="#B13E7A"/>
<path transform="translate(1785,472)" d="m0 0 4 2-1 5 8-2 2 2-1 4 18 8 5 4 3 7v20l-6 9-18 14-2 1h-6l-1 10-3 12-5 7-11 9-10 8-3-1-2-5v-7l4-9-5 4-7 14-11 40-5 21-3 15-2 13-3-3-1-11-13 7-6-1-11-8-8-8-10-14-7-11-3-6-6-3-1-5 2-4-8 2h-9l-5-5-3-9v-13l-3-10v-5l-3 1-4-4 3-8 4 2 3 1 1-5 4 2 1 4h3l2-6 3-2h7l6 2v5l4 2-1 4-7 2 4 15 4 7 5 12 5 2 5 5 11 10 8 6 5 7 3-3 11-18 10-19 6-12 9-10 6-5 7-3h7v-6l1-6-1-2-16-8-2-6 4-10 4-5 1-12 5-8 5-3h2l-3-11 2-8 3-3 4 2h3l4-4zm-132 90-1 2h5l1-2zm16 43-1 2h2z" fill="#B23F7B"/>
<path transform="translate(172,81)" d="m0 0h13l10 2 8 4 9 7 4 5 2 4 5 3 8 15 3 9 1 5v15l-3 10-5 10-9 10-1 2 9 3 1 5-9 5h-6l-3-8-8 4-5 1h-16l-11-3-10-6-5-5-11-14-7-9-5-13-1-6v-10l2-10 6-12 12-13 13-8z" fill="#FDA4AE"/>
<path transform="translate(285,511)" d="m0 0 12 1 10 4 15 10 3 7v21l-4 15-1 23-7-1-6-5-1-6 5-5 8-15 1-4-1-16-3-3-3-9v-2l-4 1-5 6-7 5-4 5-7 4-4 5-5 2v5l8 8 4 10v25l3 8v9l-3 5-9 10-3 2-3 11-4-1-1-4-18 4-4 1-3 12-2 4-6-1-9-11-3-7 1-6 3-4v-2l-9-5-1-5 6-2 1-5 3-10 1-7 3-4 1-9-2-6v-10l5-15 3-7 6-5 5-6 6-4h2l2-4 14-13 6-3z" fill="#74402A"/>
<path transform="translate(597,829)" d="m0 0h7l5 4 1 2v10l-7 8-10 8-1 2 15-3 21-3h9l2 9v6l-2 2 3 36 1 18-14 2-47 7-19 2h-7l-7-24-6-25-4-7-1-14 21-3 18-2 4-2-11-2-8-7-3-5 1-6 5-6 4-1 8 4 8 10 2 1 1-9 3-8 4-3zm0 5-4 4 1 3 4-4-2 5-4 5-1 7 6-1 7-8 1-5-2-5-1-1zm-32 8-2 1v6l6 5 11 4h3l-1-4-10-11z" fill="#FC938C"/>
<path transform="translate(1888,528)" d="m0 0h7l7 3 3 2 16 1 8 4 6 10 5 14 4 19 5 5 9 1 1-5-2-5 6 1 5 5 3 9v8l-4 10-4 3-7 1 7 8v8l-6 7-6 5-9 1-17-2-1-2-1-18-6-9-7-6v-3h-2l1-11 4-9 6-4 2-2v-8l-5-4-8-6-4-5-4-11-3-3-6-1-7 3-3 1-3 9-5 8-3 11v9l3 5 4 5-1 5-3 1h-32l-4-5v-4l-3-1-2-3-3-1 2-1 1-5 6-3 19 2 5-4 6-23 7-10 5-6zm62 96-1 2 3 6h3l2-5-5-3z" fill="#F5963E"/>
<path transform="translate(310,525)" d="m0 0 3 1 5 12 2 2 1 16-4 10-5 9-3 3h-2v6l5 5 3 2 5 1 1-2 5 5 8 7 5 9-1 9-3 4-1 10 1 16 1 8-17-1-19 1-8 3-1 7h-7l-4 7h-5l-2-3-1-25h2l2-11 6-5 7-8 2-4v-9l-3-8v-25l-4-10-8-8v-5l8-5 5-5 6-4 4-5 8-6z" fill="#F5963D"/>
<path transform="translate(182,493)" d="m0 0 7 3 5 5 2 4-1 9 2 5 4 2 10 17 2 8v8l-4 6-6 7 2 9 8 1 9 8 5 10-1 3-4-8v-2l-12 5-7 6-7 1-6-1-1 4 4 10 9 40 2 20 2 43 1 13-6 2-15 1h-15l-2-3 24-1 9-1 1-2v-25l-3-40-5-25-6-25-8-16-5-5-4 1 4-4 6-2v-12l-2-6-11 2-10-5-12-10-3-6-3-4-1-3v-7l6-9 2-8 6-4 8-4 10-7-2-4v-3l5 1 7 3-1-4z" fill="#F8BB98"/>
<path transform="translate(1785,472)" d="m0 0 4 2-1 5 8-2 2 2-1 4 18 8 5 4 3 7v20l-6 9-18 14-2 1h-6l-1 10-3 12-5 7-11 9-10 8-3-1-2-5v-7l4-9-4 2 1-8h7v-6l1-6-1-2-16-8-2-6 4-10 4-5 1-12 5-8 5-3h2l-3-11 2-8 3-3 4 2h3l4-4z" fill="#FC948B"/>
<path transform="translate(219,588)" d="m0 0 3 1-1 3 1 2v7l-5 15-2 4 2 1h-2l2 7 7 4-1 6-1 4 4 10 9 11 11 4 1 2 1 15 4 7h-5l-2 30-8 3-24 4h-7l-1-12-2-43-3-25-8-35-4-10 1-4 3-1 9 1 6-4 5-4z" fill="#FDFDFD"/>
<path transform="translate(347,817)" d="m0 0 2 1-4 33-6 26-8 44-4 15v7l3 8 9 11 8 5 3 4v3h-5l-7-2-9-2-12-6-7-1-2-7 3-14v-17l-2-25v-34l4-21 2-8v-15l-1-2 4-1z" fill="#F8BB99"/>
<path transform="translate(280,819)" d="m0 0h26l3 2-11 38-9 31-6 14-11 33v17l6 15v6l-4-1-14-11-8-10-5-7 1-6 6-7 3-8 1-8 2-35 3-22 5-16 4-13 8-9-2-2z" fill="#F8BB99"/>
<path transform="translate(1891,538)" d="m0 0 7 2 4 5 4 10 5 6 9 6 2 2v8l-7 6h-2l-3 9-1 9-1 2h2v3l3 1 5 5 6 9v17l-5-4h-2v-5h3l-1-9h-2l-1-3-8-5-3 1-1-3h-5l-13 7-7-1-3-4-1-9h-8l-2 1v-2l-3-1h-12l-3 3-3 5v7l3 5 5 2v3l-9 5-7-1-2 3-6-13v-8l3-12 2-3h2v-6l-2-1-1 6-3 5h-4l-1-2v-14l3-7 7-7 7-2 9 2h7l4-2 2-4 1 2-2 5-5 4-19-2-3 1-3 3-2 4h3l2 4 2 1 3 7 1 1h32l3-1-1-5-5-6-1-3v-9l4-13 5-8 3-7 6-4z" fill="#F8BA97"/>
<path transform="translate(1827,710)" d="m0 0 6 2 9 6 7 3 24 3v15l19-6h6l8-3 10-4 9 7 7 8v3l-6-1-8-3-6 1-9 3-2-1-1 6-10 5-3 8-1 2 5 1 14 5 8 2 2 7 2 10 3 9v8l-5-1-5-8-4-9-5-5-14-5-10-2-3 1-5-1-23-1-6-9-5-8-7-28-1-6z" fill="#5D9BBE"/>
<path transform="translate(1606,293)" d="m0 0h7l8 3 4 5 7 11 2-1 4-8 5-5 6-4 3-1h8l6 3 4 5 3 6v11l-7 14-8 11-5 6-6 4-11 10-2 3-4-2-11-11-7-6-9-11-7-10-4-8v-10l4-8 7-6z" fill="#FD938C"/>
<path transform="translate(1480,875)" d="m0 0 9 1 4 4 3 7h2l5-10h7l3 5-1 6-5 4-6 2v2l13 1 10 1 1 3-5 26-5 22-3 1-21-2-29-2-1-2-1-49h17l13 1v-4l-6-1-5-4-2-3v-6z" fill="#E59FBB"/>
<path transform="translate(337,681)" d="m0 0 5 1 4 6 9 30 1 9-15 3-19 2-32 2h-25l1-10 3-23 2-3 5-2h14l12 3 19 2h11l1-1v-9l3-9z" fill="#F5963E"/>
<path transform="translate(569,865)" d="m0 0h7l3 2 4 19 7 44v5l-10 2-19 2h-7l-7-24-6-25-4-7-1-14 21-3z" fill="#FC938B"/>
<path transform="translate(422,531)" d="m0 0h8l4 2 1 2v9l11-2 3 6 5 16 4 10 1 9-14 6-9 7-20 6-3-1-2-5 2-14v-5l-8 4-1-4-3-1v-3l-5-3-4-4 1-4 6-2 1-2-6-2-1-1v-6l2-4 4-2 16 1 2-8z" fill="#FC948C"/>
<path transform="translate(1908,611)" d="m0 0 9 6v3h2l1 9h-3l1 6-4 8-2 10 4 1-1-2v-6l4 1 2-4 5-1 4 5-1 9-8 18-4 5-7-1-3-4-4-12-4 2-6 1-11-6-11-5-11-8-5-4-10-4-1-4 5-4h3l2-4 4-5 5-2 7 7 3 5 5 1 6-2 3-5 12-6h2l2-4zm8 43m1 1v2l2-1z" fill="#F5A9B8"/>
<path transform="translate(310,525)" d="m0 0 3 1 5 12 2 2 1 16-4 10-5 9-3 3h-2v6l5 5 3 2 5 1 1-2v3l-5 1 3 2-1 8-3 5-3 3-10 1-8-2-3-1-3-8v-25l-4-10-8-8v-5l8-5 5-5 6-4 4-5 8-6z" fill="#F8B997"/>
<path transform="translate(1837,667)" d="m0 0 4 1 5 5 3 6 6 2 8 3 7 3 7 1 2 2 1 4 1 23-7 5-1 2h-10l-14-2-14-7-8-5-1 2-2-8-4-6 2-10 6-8 7-9z" fill="#F4AAB9"/>
<path transform="translate(1785,472)" d="m0 0 4 2-1 5 8-2 2 2-1 4 18 8 5 4 3 7v20l-6 9-18 14h-6l-2-3v-5l9-3 2-3-1-5h-9l-3-9-3-14-8-2 2 9-5 1-4-2v-2h3l-1-6-4-2-5-10 2-10 3-3 4 2h3l4-4z" fill="#76412B"/>
<path transform="translate(1760,648)" d="m0 0h1l1 7 5 2 9 7 3 4v8l-2 4h-15v20l1 12-1 2-19-2-19-3-1 2v-17l2-8 6-9 8-14 5-5 4-3h11z" fill="#FDFDFD"/>
<path transform="translate(182,493)" d="m0 0 7 3 5 5 2 4-1 9 1 7-6 3-6 7-9 1-3 4 3 1v6l-3 3-7 2-2 6 3 5 8 1 2 2-1 4-6 2-10-5-12-10-3-6-3-4-1-3v-7l6-9 2-8 6-4 8-4 10-7-2-4v-3l5 1 7 3-1-4z" fill="#76412B"/>
<path transform="translate(1673,16)" d="m0 0h6l6 7 2 9 1 10 11-12 4-2 9 1 12 12v5l-6 5-5 2-2 3-15 1 10 9 3 6-1 6-5 7-3 1-10-6-4-11v-3l-3 3-5 11-4 13-4 18-5 12-9 11-9 6-12 5-9 1h-9l-8-1-1-4 4-1 8 1h9l12-3 11-6 5-4 8-13 4-18 3-13 8-17 2-5v-3l-4 5-6 8-3 2-10-1-6-7-1-2v-6l6-4 14-4-3-2-15-3v-4l2-2h7l10 3-5-8v-13zm1 3-2 3v8l7 12 5 4-2-16-3-10zm31 13-6 4-6 8v2l5-1 14-7-1-4-3-2zm9 8-14 7-3 2 2 1h8l10-3 2-2-1-5zm-22 6m-19 10-16 4-1 4 3 5 6 1 8-7 6-7zm16 3 1 10 6 10 4 3 3-3 1-7-4-7-6-5z" fill="#EB94AF"/>
<path transform="translate(413,575)" d="m0 0h1l-1 17-2 5-7 11-18 30-11 13-6 5-7-1-10-7-12-9-4-4 1-8 4-9 3-2 1-2 14 13 2 5 4 1 9-12 9-9 5-2 2-5 5-4 1-5v-13l4-7 4 1 2 3 5-3z" fill="#F8BC9A"/>
<path transform="translate(597,829)" d="m0 0h7l5 4 1 2v10l-7 8-10 8-1 2 3 1-1 3 6 40 2 13v11l4 2-16 2-5-31-6-33-1-4-3-3 4-2-11-2-8-7-3-5 1-6 5-6 4-1 8 4 8 10 2 1 1-9 3-8 4-3zm0 5-4 4 1 3 4-4-2 5-4 5-1 7 6-1 7-8 1-5-2-5-1-1zm-32 8-2 1v6l6 5 11 4h3l-1-4-10-11z" fill="#F8BC9B"/>
<path transform="translate(106,597)" d="m0 0 5 1 3 5v4l4 2 4 11 2 13v8l-5 1-10-5-1-3v-7l4-3-7 1 1 10-2 7-4-1-3-7v8h-2l-3 9-5 2-5-1-2-5-4-18-2-6v-5l3-2v-11l3-2 8 3 1-3 4 4 3 1 1-5 5-3z" fill="#FB988C"/>
<path transform="translate(1649,555)" d="m0 0h7l6 2v5l4 2-1 4-7 2 4 15 4 7 5 12 4 2-5 3-5 4-7 3 2-6-8 2h-9l-5-5-3-9v-13l-3-10v-5l-3 1-4-4 3-8 4 2 3 1 1-5 4 2 1 4h3l2-6zm4 7-1 2h5l1-2zm16 43-1 2h2z" fill="#F8BC99"/>
<path transform="translate(276,391)" d="m0 0 7 1 5 5 1 2-1 9-8 17-5 10-5 3-10-4-7-6-7-8-7-10-1-6 4-5 3-2h7l10 5 4 1 5-9z" fill="#EA91AF"/>
<path transform="translate(1498,896)" d="m0 0h10l16 2 1 3-5 26-5 22-3 1-18-2-1-1v-13l4-33z" fill="#E59EBC"/>
<path transform="translate(1891,538)" d="m0 0 7 2 4 5 4 10 5 6 9 6 2 2v8l-7 6h-2l-3 9-1 9-1 2h2v3l3 1 5 5 6 9v17l-3-3v-14l-5-7-6-4-6-6v-8l7-16v-3l6-3v-5l-9-6-3-3-5-3-1-7-2-7-1-1h-6l-5 6v3h-3v3h-2v2h-2l-4 16 1 9 4 7 5 3 1 4-4 4h-31l-12 6v3l-7-1-1-4 3-6h2v-6l-2-1-1 6-3 5h-4l-1-2v-14l3-7 7-7 7-2 9 2h7l4-2 2-4 1 2-2 5-5 4-19-2-3 1-3 3-2 4h3l2 4 2 1 3 7 1 1h32l3-1-1-5-5-6-1-3v-9l4-13 5-8 3-7 6-4z" fill="#FBAA66"/>
<path transform="translate(1847,643)" d="m0 0 8 1 12 8 10 4 9 4 4 3 1 7-3 2h-3l2 4-1 5-4 4h-2l2 3v8h-1l-1-7-1-3-11-3-13-7-6-4v-2l-4-2-3-5 4-1v-8l2-4-2-1v-5z" fill="#FCDACA"/>
<path transform="translate(338,609)" d="m0 0 6 5 1 3-4 1-4 12v22l4 24 2 7-6-1-3 11v7l-2 2h-11l-19-2-12-3h-14l-5 1-1 2v-6l5-3 13 1 15 5h7l1-5 3-3 2 1-1 4 6 3 8-1 2-3 2-8 1-7v-10l-1-3-3-2v-2l-4-1h-8l-10 2-4 8-8 2-2 5h-2l-1 3-2 1h-8l-6-1-1-6h6l3-6 1-1h6l2-7 8-3 19-1h8l9 2-2-8-1-18 2-10 3-5z" fill="#FB9D8B"/>
<path transform="translate(1507,706)" d="m0 0 5 1 3 4 2 7 3 1 1-7 5-4h7l5 5v7l-5 8-5 3v2l5-1 3 3v6l-1 1-9-1-3-3-10 5-7-1-3-3-1-6 3-7 6-4v-3l-5 1-3-4v-6z" fill="#FDA5AD"/>
<path transform="translate(318,659)" d="m0 0h8l4 2 4 4 1 7v8l-1 7-4 9-5 2-6-1-5-3 2-7 1-3-17-4-2-2 1-5 5-4 4-8z" fill="#E49CBB"/>
<path transform="translate(1786,546)" d="m0 0 5 1-1 9-3 12-5 7-11 9-10 8-3-1-2-5v-7l4-9-4 2 1-8h7v-6l1-7 9-1z" fill="#F8BB99"/>
<path transform="translate(1754,941)" d="m0 0h16l3 31 2 3v6l-7 3-33 4h-7v-2l12-5 11-8 4-2 1-2v-13z" fill="#F8BD9B"/>
<path transform="translate(1480,875)" d="m0 0 9 1 4 4 3 7h2l5-10h7l3 5-1 6-5 4-6 2v2h-3l-1 14-3 24v14l-9-1v-8l2-8 1-25 2-14-6-1-5-4-2-3v-6z" fill="#F8BC9A"/>
<path transform="translate(1856,926)" d="m0 0 5 4 9 16 4 7v10l-3 10-6 12-4 3-4-5-1-7 4-5-2-7-4-16-6-10-5-8z" fill="#F8BD9C"/>
<path transform="translate(423,422)" d="m0 0h8l5 5 1 3v13l-5 17-6 10-3 3-7-1-8-7-9-11-5-10-1-7 5-5h6l6 4 3 1 6-12zm1 6-5 8-4 10-4-1-7-8-5 1 2 10 4 6 12 12h4l9-19 2-9-1-7-4-3z" fill="#EC96B0"/>
<path transform="translate(1924,642)" d="m0 0 3 1 3 4-1 9-8 18-4 5-7-1-3-4-4-12-4 2-6 1-7-4 2-2h3l1-5 5-3 7-2 8-3v7l4 1-1-2v-6l4 1 2-4zm-8 12m1 1v2l2-1z" fill="#F8BB99"/>
<path transform="translate(1908,611)" d="m0 0 9 6v3h2l1 9h-3l1 6-6 12-9 4-8 2-3 3-1 3-6 1-13-5-2-3 12-2 3 3 3-3h2v-2l6-3 5-3 2-7-2-7-2-1v-2l-12 4-2-1 2-3 12-6h2l2-4z" fill="#FDA3AC"/>
<path transform="translate(107,906)" d="m0 0 3 1 6 13v2h2v8l-1 5-1 19-1 8-4-2-6-12-6-27-3-6 2-4z" fill="#7C4630"/>
<path transform="translate(417,568)" d="m0 0h13l3 5 4 12 1 9-5 3-17 5-3-1-2-5 3-21z" fill="#5D9BBF"/>
<path transform="translate(219,588)" d="m0 0 3 1-1 3 1 2v7l-1 2-4-1-1-4-7 2-6 4-7 1-1 3 4 9 5 25 3 17v35l1 3v19h1l-1 9-2 2-1-11-2-43-3-25-8-35-4-10 1-4 3-1 9 1 6-4 5-4z" fill="#FCDACA"/>
<path transform="translate(195,953)" d="m0 0 19 1 11 6 19 12v3l-21-1-17-3-13-4-1-6 2-7z" fill="#7D4630"/>
<path transform="translate(1884,764)" d="m0 0h6l11 5 12 3 2 7 2 10 3 9v8l-5-1-5-8-4-9-5-5-14-5-9-3 1-6z" fill="#F8BD9B"/>
<path transform="translate(1752,524)" d="m0 0 6 1 3 2v5h20l7 2 1 5-4 5-9 4-6 1h-9l-13-7-2-6 4-10z" fill="#76412B"/>
<path transform="translate(1760,648)" d="m0 0h1l1 7 5 2 9 7 3 4v8l-2 4h-15v20l1 12-1 2-19-2-19-3-1 2v-6l7 1 21 4 9 1-1-11-1-22 3-9-5-7v-2l-4-2 1-2 6-1z" fill="#F8B998"/>
<path transform="translate(1895,357)" d="m0 0 4 1 2 4 2 9 4 6 9 7 3 3-1 3-13 4-3 1-2 4-6 5-5 7h-3l-5-13-6-9-10-10 3-3 12-3 9-6 4-7zm0 7-7 9-12 7-1 2 5 8 5 3 3 10 14-12 10-3-1-4-9-6-5-14z" fill="#F8BC99"/>
<path transform="translate(116,370)" d="m0 0 5 1 6 3h14v4l-3 4-1 3-1 13-7 1-3 2-3-2-1-3-12-3 1-4 3-5 2-6z" fill="#FBAA66"/>
<path transform="translate(217,196)" d="m0 0 3 1 7 16 9 12 10 7 7 2 33 4 10 4 13 8 5 8 5 13 1 7h-4l-6-19-8-9-12-5-25-4-15-3-9-4-8-6-1-3h-2l-4-6-6-11-4-8z" fill="#FDFDFD"/>
<path transform="translate(110,623)" d="m0 0h6l-4 2-3 2v10l6 2 4 2h4l2-2-1 6 5 6-4-1v3l4 2-4 4-3 1-5-2-5-4-9-2-11-1 1-6 2-3h2l-1-10 3 3 2 6h3l1-8-1-8z" fill="#F8BD9A"/>
<path transform="translate(1870,602)" d="m0 0 5 1 2 9 2 3 7 1 13-7h5l1 5-4 5-11 6h-3v2l-7 4-6-1-5-7-1-3v-11z" fill="#FCDACA"/>
<path transform="translate(422,531)" d="m0 0h8l4 2 1 2v8l-10 8-6 5-8 1-3-2 2-1-1-6h-7l-4 1-1 7-2-1v-2h-2l1-6 3-3 2-1 16 1 2-8z" fill="#619DC0"/>
<path transform="translate(310,525)" d="m0 0 3 1 5 12 2 2 1 16-4 10-5 9-3 3h-2v6l5 5 3 2 5 1 1-2v3l-9 1-8-8-1-2v-6l9-7 5-13v-10l-4-3v-6l-1-1-1-10h-2v3h-2l-2 4-4 3-3 8-3 2-8 1-2 4-3 4 1 4 7 14 1 3v12l-2 1-1-14-4-10-8-8v-5l8-5 5-5 6-4 4-5 8-6z" fill="#FC938B"/>
<path transform="translate(1649,555)" d="m0 0h7l6 2v5l4 2-1 4-8 3-19 2-6 1v-4l-3 1-4-4 3-8 4 2 3 1 1-5 4 2 1 4h3l2-6zm4 7-1 2h5l1-2z" fill="#FB968F"/>
<path transform="translate(202,87)" d="m0 0 9 6 5 6 2 6-5 5-6 5h-6l-6-4-3-5 1-8 5-6 5-1z" fill="#FCDACA"/>
<path transform="translate(1606,759)" d="m0 0 5 2 16 1 3 1v10l5 5 1 5-9 3-5 12-4-2-6-10-4-2h-7l-2-2 1-5 7-6zm18 7-10 1-6 12 8 7 3 3 4-2 5-8-2-8-1-5z" fill="#F9C8AC"/>
<path transform="translate(338,609)" d="m0 0 6 5 1 3-4 1-4 12v30l-4 1-7-3-25 1-7 3 1 4v8l-1 3h-2l-1 3-2 1h-8l-6-1-1-6h6l3-6 1-1h6l2-7 8-3 19-1h8l9 2-2-8-1-18 2-10 3-5z" fill="#FBAB69"/>
<path transform="translate(1870,952)" d="m0 0 4 1v10l-3 10-6 12-4 3-4-5-1-7 4-5-2-7v-5l9-6z" fill="#824833"/>
<path transform="translate(1755,200)" d="m0 0 2 1 1 7 5 6-6 3-3 9-5-1-2-2h-7l-2-1 1-7 2-5-2-5 1-4 11 1z" fill="#F8C0A1"/>
<path transform="translate(1681,68)" d="m0 0 1 4-6 13-6 26-5 12-9 11-9 6-12 5-9 1h-9l-8-1-1-4 4-1 8 1h9l12-3 11-6 5-4 8-13 4-18 3-13 7-15z" fill="#EE9EB3"/>
<path transform="translate(196,519)" d="m0 0 5 2 6 10-1 3h-3l-1 4-7-3 1-4 6-1v-2l-10 1-4 3v3l4 2v3l-6-1-1-3 1-2-7-1-1 3v8l-3 4-7 1-2 7 1 1 10 2 2 5-4 2-1-5-8-1-3-3-1-4 3-6 8-3 1-1v-6l-2-1 2-4 1-1 9-1 7-8 5-1z" fill="#FC948B"/>
<path transform="translate(161,130)" d="m0 0 5 1 4 3 1 3v10l-5 6h-8l-7-5-1-7 4-7 4-3z" fill="#FCDACA"/>
<path transform="translate(106,597)" d="m0 0 5 1 3 5v4h2v2l-12 3-13 2-6 2h-6l-2-11 3-2 8 3 1-3 4 4 3 1 1-5 5-3z" fill="#5F9CBF"/>
<path transform="translate(302,670)" d="m0 0 4 1 3 6 3 2h9l3 1v2h2l1 2 6-4 1 3-1 5-2 7-2 2-8 1-6-3-1-3 3-6v-2l-17-4-2-2 1-5z" fill="#EA91AE"/>
<path transform="translate(1915,726)" d="m0 0 7 4 8 8 2 3v3l-6-1-8-3-6 1-9 3-5-3-3-5v-2l11-4z" fill="#FDA5A7"/>
<path transform="translate(1752,974)" d="m0 0 9 1 13-1 1 1v6l-7 3-33 4h-7v-2l12-5 8-6z" fill="#824633"/>
<path transform="translate(419,557)" d="m0 0h1l1 6h-2l-4 12h-2l-1 3-4 2-3 1-1-4-3-1v-3l-5-3-4-4 1-4 6-2h6l5 1 4-1 2-2 3 1z" fill="#FA928C"/>
<path transform="translate(1984,664)" d="m0 0 4 1 5 5 5 2-1 4-1 2-1 10-3 1-2-1h-7l-5 2-2-1-2-11h-2l-1-5 9-4zm-1 8-3 5 2 6 3 2h4l1-6-1-6-1-1z" fill="#FDFAF9"/>
<path transform="translate(1850,600)" d="m0 0h12l3 2-1 4-5 3-2 8-1 5-4 2-6-3-3-5v-7l5-8z" fill="#FCDACA"/>
<path transform="translate(1863,565)" d="m0 0 1 2-2 5-5 4-19-2-3 1-3 3-2 4h3l2 4 2 1v4l-4-1-1 6-3 5h-4l-1-2v-14l3-7 7-7 7-2 9 2h7l4-2z" fill="#FBAC6C"/>
<path transform="translate(539,698)" d="m0 0h16l1 1 1 12-6 2-2 5-4 1-2-1-2-5-4-2 1-7z" fill="#5F9CC0"/>
<path transform="translate(1760,648)" d="m0 0h1l1 7 5 2 9 7 3 4v8l-2 4h-15v20l1 12-1 2-19-2-19-3-1 2v-6l7 1 21 4 9 1-1-11-1-22 1-2 14 2h3l-1-13-4-2-11-6z" fill="#E895B3"/>
<path transform="translate(207,148)" d="m0 0h5l5 4 1 2v8l-4 6-7 1-6-4-1-2v-7l4-6z" fill="#FCDACA"/>
<path transform="translate(91,630)" d="m0 0 4 1 2 3v8h-2l-3 9-5 2-5-1-2-5v-11z" fill="#609DC0"/>
<path transform="translate(1507,706)" d="m0 0 5 1 3 4 2 7 4 1 1-3 9-2 1 3-2 1-2 6h-6l-5 4-5-1-1-2v-6l-5 1-3-4v-6z" fill="#FC948D"/>
<path transform="translate(1755,512)" d="m0 0 1 2h2l1 3 5 2 2 2h11l10-3 2 2-1 7-2 2-16 1-8-3-5-4h-3z" fill="#F8BB98"/>
<path transform="translate(116,370)" d="m0 0 5 1 6 3h14v4l-3 4-1 3-1 13-7 1-3 2-3-2v-3h9l2-9v-7l-3-2h-10l-4 9 2 7h-7l-2-1 1-4 3-5 2-6z" fill="#F8BE9D"/>
<path transform="translate(1840,661)" d="m0 0 1 3 3 1 5 5v2l5 2 10 6 6 3 9 3 2 3v23h-1l-1-18-2-5-7-1-7-3-9-3-5-2-3-4-3-6-5-3z" fill="#FDA4AD"/>
<path transform="translate(1609,485)" d="m0 0 5 2 9-1 3 9-1 5-6 2-2 3h-3l-2-4-6-2v-3l5-2z" fill="#609DC0"/>
<path transform="translate(116,623)" d="m0 0h5l3 10v8l-5 1-10-5-1-3v-7l4-3z" fill="#5F9CBF"/>
<path transform="translate(1493,907)" d="m0 0h2v9l-2 15-1 16 2 1-9-1v-8l2-8 2-18z" fill="#FCDACA"/>
<path transform="translate(310,948)" d="m0 0h1l1 8 2 4 5 2 8 3h8l1-5 10 6 4 5v3h-5l-7-2-9-2-12-6-7-1-2-7z" fill="#FCDACA"/>
<path transform="translate(1867,602)" d="m0 0h3l-1 7v11l4 8 3 2 6-1 3-1-1 3-7 2-5-2-6-8-4-3-6 2v-7l3-7 6-4z" fill="#FDA4AD"/>
<path transform="translate(1748,655)" d="m0 0h8l-3 3 4 4 5 8-4 10-5-5-7-11-2-3 1-4z" fill="#FCDACA"/>
<path transform="translate(1912,779)" d="m0 0h3l2 10 3 9v8l-5-1-5-8-5-13 1-4 5 1z" fill="#FDAAB1"/>
<path transform="translate(275,691)" d="m0 0 13 1 15 5 14 1 2 1 13 1 1-7h1v7l-2 2h-11l-19-2-12-3h-14l-5 1-1 2v-6z" fill="#FCAA66"/>
<path transform="translate(270,954)" d="m0 0h2l6 15v6l-4-1-14-11-4-5v-2h2l1 2 8 1 3-2z" fill="#FCDACA"/>
<path transform="translate(338,609)" d="m0 0 6 5 1 3-4 1-4 12v30l-4 1-7-3h-25v-1l18-1h8l9 2-2-8-1-18 2-10 3-5z" fill="#FBAA68"/>
<path transform="translate(1681,68)" d="m0 0 1 4-6 13-6 26-5 12-3 2-1-3 5-10 5-26 8-17z" fill="#ED9AB2"/>
<path transform="translate(1581,829)" d="m0 0 11 2 1 1v8l-6 7-7-4z" fill="#639EC1"/>
<path transform="translate(197,942)" d="m0 0 10 2 5 2 1 8h-18l-2 1 2-9z" fill="#F8C3A5"/>
<path transform="translate(302,670)" d="m0 0 4 1 3 6 3 2h9l3 1v2h2l-1 3-7 4h-2l1-5-17-4-2-2 1-5z" fill="#FCA4AF"/>
<path transform="translate(1915,726)" d="m0 0 7 4 8 8 2 3v3l-6-1-10-4-4-9 1-3z" fill="#E59FBC"/>
<path transform="translate(293,243)" d="m0 0 6 1 10 6 5 8 5 13 1 7h-4l-6-19-8-9-9-4z" fill="#F9C8AC"/>
<path transform="translate(301,658)" d="m0 0h17v2l-10 2-4 8-8 2-3-7 1-4z" fill="#FC948B"/>
<path transform="translate(239,666)" d="m0 0 7 1 1 2 1 15 4 7h-7l-3-5-2-15v-2l-2-1z" fill="#FCDACA"/>
<path transform="translate(263,642)" d="m0 0h5l1 8h-3l-3-2-9 1-4 2-4 11-3 2h-5l4-2 4-13 3-3 10-3z" fill="#FC9489"/>
<path transform="translate(1673,16)" d="m0 0 3 1-3 5v8l6 10-1 4-4-1-6-9v-13zm-2 26 3 2h-3z" fill="#EC96B0"/>
<path transform="translate(402,547)" d="m0 0h7l2 3-1 5 1 2-11 2-6-3-1-3h2l1 1 2-5z" fill="#FEFEFE"/>
<path transform="translate(1877,386)" d="m0 0 4 4 5 3 3 9 2-1 1 2 3-2 1 2-5 5-2 3h-3l-5-13-6-9-1-2z" fill="#F8BE9D"/>
<path transform="translate(218,183)" d="m0 0 6 1 3 2-1 5-8 4h-6l-1-1v-7z" fill="#66A0C2"/>
<path transform="translate(217,620)" d="m0 0h2v6l10 6-2 5-2 3 1 6 4 8 6 7 2 2h-4l-9-11-4-10 2-6v-4l-8-5v-6z" fill="#FAA891"/>
<path transform="translate(1993,671)" d="m0 0 5 1-1 4-1 2-1 10-3 1-2-1h-7l-5 2-1-4 2-2 10 1 1-9z" fill="#F8C5A7"/>
<path transform="translate(431,545)" d="m0 0h2l1 3-9 6-3 3 1 5 2 3 5 1v1h-7l-2-1-2-7-4 1-2 2h-6l-7-2 1-2 18-3 8-7z" fill="#F0A2AE"/>
<path transform="translate(316,595)" d="m0 0 3 1-1 8-3 5-3 3-10 1-8-2-1-3 16-1 4-1 2-5z" fill="#FCAA66"/>
<path transform="translate(1676,16)" d="m0 0 4 1 5 6 2 9v13l-2 1v-3h-2l-3-17-2-6-3-1z" fill="#EA92AF"/>
<path transform="translate(1898,643)" d="m0 0m-1 1m-1 1m-1 1m-3 1h3v2l-6 5-1 6-9-2-8-4-1-2 12-2 3 3 3-3h2v-2z" fill="#FEA4AE"/>
<path transform="translate(103,625)" d="m0 0 2 4 1 6-2 7-4-1-3-8-3-2-6 1-7 4-1 5h-1l-1-7 12-5 10 1z" fill="#EA90AC"/>
<path transform="translate(109,905)" d="m0 0h7l8 7-1 2-2-1 1 4-5 1-1 4-7-15z" fill="#F9B69C"/>
<path transform="translate(140,116)" d="m0 0h8l2 4-1 6-2 2h-7l-3-6 2-5z" fill="#FCDFD1"/>
<path transform="translate(204,716)" d="m0 0h2l1 13-6 2-15 1h-15l-2-3 24-1 9-1 1-2z" fill="#F8B897"/>
<path transform="translate(1649,522)" d="m0 0h8l3 4v6l-5 6-3 2-3-1 6-5 2-4-1-5h-7l-2 5-2 4h-6l-2-2 1-7h2l3 6h1l2-7z" fill="#EBACBE"/>
<path transform="translate(178,84)" d="m0 0 5 4 1 6-3 2h-7l-4-3 1-5 4-3z" fill="#FCDACA"/>
<path transform="translate(204,543)" d="m0 0h5l2 4-5 8-5 2-7-1-1-2 8-6z" fill="#FB9089"/>
<path transform="translate(217,196)" d="m0 0 3 1 7 16 5 6v5h2v3h-2v-2h-2l-4-6-6-11-4-8z" fill="#F9C7AB"/>
<path transform="translate(347,817)" d="m0 0 2 1-1 3-5 1-27 1-2-3 4-1z" fill="#F99391"/>
<path transform="translate(241,400)" d="m0 0v3l1 7 4 2v2l3 1v4l7 6 5 7 3 3-5-2-6-5-7-8-7-10-1-6z" fill="#F5ACB9"/>
<path transform="translate(1723,705)" d="m0 0 7 1 21 4 11 1 1-4-1 7-19-2-19-3-1 2z" fill="#E99BB4"/>
<path transform="translate(1649,555)" d="m0 0h7l6 2v4l-11 3-5-1-2-2 3-5z" fill="#EC93AB"/>
<path transform="translate(436,722)" d="m0 0 5 1 4 6-1 3-2 1h-6l-4-4 1-5z" fill="#FBB178"/>
<path transform="translate(334,684)" d="m0 0h1v6l-1 1-2 9h-13l-9-3 1-5 3-3 2 1-1 4 6 3 8-1 2-3z" fill="#FD938B"/>
<path transform="translate(1507,706)" d="m0 0 5 1 3 4v2h-2-1l-1 5-5 2-3-4v-6z" fill="#FDA9B0"/>
<path transform="translate(1862,657)" d="m0 0 6 2 2 2 10 3 8 1 2 4-1 1-9-1-10-4-5-3-3-3z" fill="#F8BB98"/>
<path transform="translate(1383,842)" d="m0 0h6l3 4-1 4-7 2-4-3 1-6z" fill="#FD9993"/>
<path transform="translate(1868,376)" d="m0 0h11l-3 6 1 6-5-2-7-7z" fill="#F8B992"/>
<path transform="translate(160,136)" d="m0 0 5 2 2 5-3 5h-5l-2-3v-7z" fill="#FEFEFE"/>
<path transform="translate(1908,732)" d="m0 0 7 2 1 5-11 5h-2v-3l2-1-1-6z" fill="#F8BB9B"/>
<path transform="translate(280,819)" d="m0 0h26l3 2h-2l-1 3-2-1-26-2z" fill="#F79394"/>
<path transform="translate(1760,648)" d="m0 0h1l1 7 5 2 9 7 3 4v8l-3 1-1-12-4-2-11-6z" fill="#EF90A4"/>
<path transform="translate(423,534)" d="m0 0h4l2 5-4 4h-6l-4 1 1-6z" fill="#FEFEFE"/>
<path transform="translate(208,154)" d="m0 0h5l2 3-1 6-4 2-4-2v-7z" fill="#FEFEFE"/>
<path transform="translate(240,404)" d="m0 0 4 1v2l2 1 2 4 7 6 1 4-1 2-3-1-4-4v-4l-3-3-4-2z" fill="#E49DBC"/>
<path transform="translate(1957,577)" d="m0 0 6 1 5 5 3 9v8l-2 3-1-14-1-5h-5l-2 1-3-6z" fill="#FBAC6C"/>
<path transform="translate(1768,970)" d="m0 0 4 1 2 3-17 2-8-1 2-2z" fill="#FA938D"/>
<path transform="translate(1846,642)" d="m0 0 2 1-2 6 3 1-2 4v6l-1 2-5 2v-6l2-7v-6z" fill="#F8BB98"/>
<path transform="translate(565,835)" d="m0 0 9 3 4 5-5 2-7-3v-3h-5z" fill="#FCDACA"/>
<path transform="translate(1660,124)" d="m0 0 3 1-6 8-8 6-6 1-2-2 11-6 5-4z" fill="#ECA4B9"/>
<path transform="translate(330,152)" d="m0 0h5l1 1v6l-4 2-5-2v-5z" fill="#EB94AF"/>
<path transform="translate(1638,139)" d="m0 0h8l-3 3-8 3h-9l-1-2 4-2z" fill="#EC99B2"/>
<path transform="translate(1897,647)" d="m0 0 6 1v3l-8 2-3 3-1 3h-3v-5l7-6z" fill="#FD938B"/>
<path transform="translate(1835,646)" d="m0 0 1 3 3 1 1 7-1 8-6 4-2-1 5-7z" fill="#EA93AF"/>
<path transform="translate(135,383)" d="m0 0h1v15l-7 1-3 2-3-2v-3h9z" fill="#F8BC9A"/>
<path transform="translate(377,340)" d="m0 0 5 1 2 4v4h-8l-1-4z" fill="#649FC2"/>
<path transform="translate(1914,794)" d="m0 0 5 3 1 1v8l-5-1-2-5v-5z" fill="#E6A1BC"/>
<path transform="translate(398,432)" d="m0 0h6v2h-2v3l-4 2h-2l1 10-2-2-2-6 1-6z" fill="#FCAAB2"/>
<path transform="translate(597,829)" d="m0 0h7l5 5-10-3v2l2 1-6 1h-4-3l5-5z" fill="#FCDACA"/>
<path transform="translate(335,654)" d="m0 0h2v6l-4 1-7-3h-25v-1l18-1h8l9 2z" fill="#FCAA66"/>
<path transform="translate(1651,522)" d="m0 0h6l3 4v6l-5 6-3 2-3-1 6-5 2-4-1-5-6-1z" fill="#EBA5BB"/>
<path transform="translate(1870,948)" d="m0 0 3 3-3 2-11 6-2 1 1-5z" fill="#FC958C"/>
<path transform="translate(1914,789)" d="m0 0 4 3 1 5-5-2v7l-3-3-2-6 2-3z" fill="#F5AEBA"/>
<path transform="translate(207,95)" d="m0 0 3 1 1 5-3 3h-4l-1-7z" fill="#FEFEFE"/>
<path transform="translate(1726,685)" d="m0 0 2 1-2 9v6l6 6-8-2-1-3v-8l2-8z" fill="#FCDCCC"/>
<path transform="translate(1679,401)" d="m0 0 6 2v4l-2 2h-5l-1-7z" fill="#F8BE9C"/>
<path transform="translate(512,795)" d="m0 0 4 1 1 1v6l-5 1-2-3 1-5z" fill="#5D9BBF"/>
<path transform="translate(1528,735)" d="m0 0 4 2 1 2 3-4v6l-1 1-9-1-2-3z" fill="#FDA8AF"/>
<path transform="translate(1728,660)" d="m0 0 1 4-2 13-3-3-1-11 1 2h3z" fill="#F1A3A7"/>
<path transform="translate(232,221)" d="m0 0 7 6 5 5-1 2-5-2-5-5 1-3h-2z" fill="#FDF8F5"/>
<path transform="translate(177,87)" d="m0 0 4 1 1 5-1 1h-6l-2-1 1-5z" fill="#FEFEFE"/>
<path transform="translate(1762,707)" d="m0 0h1l-1 7-19-2-3-2h11l11 1z" fill="#F4A29D"/>
<path transform="translate(1646,593)" d="m0 0h8l2 4-11 1-2-1 1-3z" fill="#FD938B"/>
<path transform="translate(217,196)" d="m0 0 3 1 3 7-1 5-3-3-3-6z" fill="#8BB7D1"/>
<path transform="translate(1586,419)" d="m0 0h4v8l-4 1-2-3 1-5z" fill="#609DC0"/>
<path transform="translate(225,646)" d="m0 0 6 9 5 6 2 2h-4l-9-11-1-3z" fill="#FAAA92"/>
<path transform="translate(194,951)" d="m0 0h9l10 1v2h-18l-2 1z" fill="#FC948B"/>
<path transform="translate(1868,376)" d="m0 0h11l-2 2h-5l-1 5-4-2-2-3z" fill="#FAB27E"/>
<path transform="translate(204,716)" d="m0 0h2l1 13-6 1-3-2 4-1 1-2z" fill="#F8B696"/>
<path transform="translate(1760,648)" d="m0 0h1l1 7 5 2 5 4-1 2-11-6z" fill="#ED91A8"/>
<path transform="translate(90,629)" d="m0 0h5v3l-4-1-10 5-1 5h-1l-1-7z" fill="#F8C3A5"/>
<path transform="translate(288,239)" d="m0 0 8 3-3 1v2l-9-2v-2z" fill="#FCEBE2"/>
<path transform="translate(1863,606)" d="m0 0v3l-5 10-2-4 3-7z" fill="#F8BB98"/>
<path transform="translate(1899,732)" d="m0 0 2 1 1 4h-2l1 4h-3l-3-5v-2z" fill="#F8BA9D"/>
<path transform="translate(1671,604)" d="m0 0 4 2-5 3-5 4-7 3 1-4 8-3 1-2h2z" fill="#F399A3"/>
<path transform="translate(99,635)" d="m0 0 4 1 2-1v6l-4 1-2-2z" fill="#FD938B"/>
<path transform="translate(284,393)" d="m0 0 4 4 1 2-1 9-2 2v-3-7z" fill="#EAA5BC"/>
<path transform="translate(216,180)" d="m0 0 1 2 2 1-6 4h-2l-1 4-1-6 5-2v-2z" fill="#F9BFA5"/>
<path transform="translate(1926,737)" d="m0 0 4 1 2 3v3l-6-1-1-3z" fill="#E998B3"/>
<path transform="translate(1922,622)" d="m0 0 2 1v15l-3-3z" fill="#FBAB6A"/>
<path transform="translate(1882,577)" d="m0 0 6 2v3l-5 1-2-5z" fill="#FD938B"/>
<path transform="translate(215,176)" d="m0 0 3 1-2 4h-2v2l-6 3v-2h2v-2h2l1-5z" fill="#FD938C"/>
<path transform="translate(1979,684)" d="m0 0h6v3l-5 3h-2l-1-4z" fill="#F3C0A3"/>
<path transform="translate(1756,579)" d="m0 0 1 3h2l2 7v3l-3-1-2-5z" fill="#FDB1B2"/>
<path transform="translate(1638,525)" d="m0 0h2l3 6v2h-5l-1-1z" fill="#EA99B4"/>
<path transform="translate(1759,502)" d="m0 0 3 1 3 5v2l-4-1-3-2z" fill="#854634"/>
<path transform="translate(1855,565)" d="m0 0 5 1-1 3-7 1 1-4z" fill="#F8BA96"/>
<path transform="translate(1657,561)" d="m0 0 5 1 4 2-1 4-4 1v-5z" fill="#FC978D"/>
<path transform="translate(1774,504)" d="m0 0 3 3v2l3-1v2l-5 1-4-2v-2h3z" fill="#B74348"/>
<path transform="translate(314,820)" d="m0 0h17v1l-9 1-6 1z" fill="#F3929D"/>
<path transform="translate(1757,564)" d="m0 0 5 1-1 4-5 3z" fill="#F5959B"/>
<path transform="translate(418,562)" d="m0 0 3 1v3l8 1v1h-12z" fill="#F8B897"/>
<path transform="translate(223,206)" d="m0 0 2 2 3 7-3 1-4-7z" fill="#FEFEFE"/>
<path transform="translate(1839,644)" d="m0 0 2 3v7l-2 2-1-6-2-2h2z" fill="#F3AABA"/>
<path transform="translate(254,424)" d="m0 0 9 9 1 2-5-2-4-3z" fill="#FDAAB2"/>
<path transform="translate(1955,577)" d="m0 0 1 2-2 6-2-1 1-5z" fill="#FAB27B"/>
<path transform="translate(1725,682)" d="m0 0" fill="#FEFEFE"/>
</svg>
